<mxfile host="app.diagrams.net" agent="Mozilla/5.0 (Macintosh; Intel Mac OS X 10_15_7) AppleWebKit/537.36 (KHTML, like Gecko) Chrome/135.0.0.0 Safari/537.36" version="26.2.13">
  <diagram name="Page-1" id="h3fZ30jnsTOtjcsSnBJc">
    <mxGraphModel dx="1304" dy="840" grid="1" gridSize="10" guides="1" tooltips="1" connect="1" arrows="1" fold="1" page="1" pageScale="1" pageWidth="850" pageHeight="1100" math="0" shadow="0">
      <root>
        <mxCell id="0" />
        <mxCell id="1" parent="0" />
        <mxCell id="zBRAp9LiVzj95zMNZQOe-23" value="Client (user)" style="whiteSpace=wrap;strokeWidth=2;" vertex="1" parent="1">
          <mxGeometry x="379" y="120" width="103" height="54" as="geometry" />
        </mxCell>
        <mxCell id="zBRAp9LiVzj95zMNZQOe-54" style="edgeStyle=orthogonalEdgeStyle;rounded=0;orthogonalLoop=1;jettySize=auto;html=1;exitX=0.25;exitY=1;exitDx=0;exitDy=0;entryX=0.25;entryY=0;entryDx=0;entryDy=0;curved=1;" edge="1" parent="1" source="zBRAp9LiVzj95zMNZQOe-24" target="zBRAp9LiVzj95zMNZQOe-27">
          <mxGeometry relative="1" as="geometry" />
        </mxCell>
        <mxCell id="zBRAp9LiVzj95zMNZQOe-24" value="API_Gateway - handling client requests&#xa;- tweet/messages/etc.." style="whiteSpace=wrap;strokeWidth=2;" vertex="1" parent="1">
          <mxGeometry x="353.5" y="220" width="154" height="54" as="geometry" />
        </mxCell>
        <mxCell id="zBRAp9LiVzj95zMNZQOe-25" value="User_Service" style="whiteSpace=wrap;strokeWidth=2;" vertex="1" parent="1">
          <mxGeometry x="64" y="559" width="152" height="54" as="geometry" />
        </mxCell>
        <mxCell id="zBRAp9LiVzj95zMNZQOe-26" value="Tweet_Service&#xa;- add/ delete / retweet .." style="whiteSpace=wrap;strokeWidth=2;" vertex="1" parent="1">
          <mxGeometry x="796" y="559" width="163" height="54" as="geometry" />
        </mxCell>
        <mxCell id="zBRAp9LiVzj95zMNZQOe-27" value="Feed_Service&#xa;- like , comment , etc.. " style="whiteSpace=wrap;strokeWidth=2;" vertex="1" parent="1">
          <mxGeometry x="380" y="450" width="155" height="54" as="geometry" />
        </mxCell>
        <mxCell id="zBRAp9LiVzj95zMNZQOe-28" value="Notification_Service" style="whiteSpace=wrap;strokeWidth=2;" vertex="1" parent="1">
          <mxGeometry x="615" y="380" width="205" height="54" as="geometry" />
        </mxCell>
        <mxCell id="zBRAp9LiVzj95zMNZQOe-55" style="edgeStyle=orthogonalEdgeStyle;rounded=0;orthogonalLoop=1;jettySize=auto;html=1;exitX=0.25;exitY=1;exitDx=0;exitDy=0;curved=1;" edge="1" parent="1" source="zBRAp9LiVzj95zMNZQOe-29" target="zBRAp9LiVzj95zMNZQOe-25">
          <mxGeometry relative="1" as="geometry" />
        </mxCell>
        <mxCell id="zBRAp9LiVzj95zMNZQOe-29" value="Search_Service&#xa;- user  / tweet/ trending ..." style="whiteSpace=wrap;strokeWidth=2;" vertex="1" parent="1">
          <mxGeometry x="120" y="420" width="168" height="54" as="geometry" />
        </mxCell>
        <mxCell id="zBRAp9LiVzj95zMNZQOe-30" value="(SQL Database)" style="whiteSpace=wrap;strokeWidth=2;" vertex="1" parent="1">
          <mxGeometry x="20" y="685" width="168" height="54" as="geometry" />
        </mxCell>
        <mxCell id="zBRAp9LiVzj95zMNZQOe-31" value="(Caching Layer) User Data" style="whiteSpace=wrap;strokeWidth=2;" vertex="1" parent="1">
          <mxGeometry x="370.5" y="710" width="172" height="54" as="geometry" />
        </mxCell>
        <mxCell id="zBRAp9LiVzj95zMNZQOe-32" value="tweets database" style="whiteSpace=wrap;strokeWidth=2;" vertex="1" parent="1">
          <mxGeometry x="701" y="685" width="187" height="54" as="geometry" />
        </mxCell>
        <mxCell id="zBRAp9LiVzj95zMNZQOe-53" style="edgeStyle=orthogonalEdgeStyle;rounded=0;orthogonalLoop=1;jettySize=auto;html=1;exitX=0.75;exitY=1;exitDx=0;exitDy=0;entryX=0;entryY=0.5;entryDx=0;entryDy=0;curved=1;" edge="1" parent="1" source="zBRAp9LiVzj95zMNZQOe-33" target="zBRAp9LiVzj95zMNZQOe-26">
          <mxGeometry relative="1" as="geometry" />
        </mxCell>
        <mxCell id="zBRAp9LiVzj95zMNZQOe-33" value="Message_queue" style="whiteSpace=wrap;strokeWidth=2;" vertex="1" parent="1">
          <mxGeometry x="600" y="460" width="173" height="54" as="geometry" />
        </mxCell>
        <mxCell id="zBRAp9LiVzj95zMNZQOe-34" value="(Object Storage) media " style="whiteSpace=wrap;strokeWidth=2;" vertex="1" parent="1">
          <mxGeometry x="938" y="685" width="179" height="54" as="geometry" />
        </mxCell>
        <mxCell id="zBRAp9LiVzj95zMNZQOe-36" value="" style="curved=1;startArrow=none;endArrow=block;exitX=0.5;exitY=1;entryX=0.5;entryY=-0.01;rounded=0;" edge="1" parent="1" source="zBRAp9LiVzj95zMNZQOe-23" target="zBRAp9LiVzj95zMNZQOe-24">
          <mxGeometry relative="1" as="geometry">
            <Array as="points" />
          </mxGeometry>
        </mxCell>
        <mxCell id="zBRAp9LiVzj95zMNZQOe-37" value="" style="curved=1;startArrow=none;endArrow=block;exitX=0;exitY=0.69;entryX=0.25;entryY=-0.01;rounded=0;" edge="1" parent="1" source="zBRAp9LiVzj95zMNZQOe-24" target="zBRAp9LiVzj95zMNZQOe-25">
          <mxGeometry relative="1" as="geometry">
            <Array as="points">
              <mxPoint x="67" y="326" />
              <mxPoint x="67" y="534" />
            </Array>
          </mxGeometry>
        </mxCell>
        <mxCell id="zBRAp9LiVzj95zMNZQOe-38" value="" style="curved=1;startArrow=none;endArrow=block;exitX=1;exitY=0.66;entryX=0.5;entryY=-0.01;rounded=0;" edge="1" parent="1" source="zBRAp9LiVzj95zMNZQOe-24" target="zBRAp9LiVzj95zMNZQOe-26">
          <mxGeometry relative="1" as="geometry">
            <Array as="points">
              <mxPoint x="960" y="256" />
            </Array>
          </mxGeometry>
        </mxCell>
        <mxCell id="zBRAp9LiVzj95zMNZQOe-40" value="" style="curved=1;startArrow=none;endArrow=block;exitX=1;exitY=0.73;entryX=0.5;entryY=-0.01;rounded=0;" edge="1" parent="1" source="zBRAp9LiVzj95zMNZQOe-24" target="zBRAp9LiVzj95zMNZQOe-28">
          <mxGeometry relative="1" as="geometry">
            <Array as="points">
              <mxPoint x="740" y="326" />
            </Array>
          </mxGeometry>
        </mxCell>
        <mxCell id="zBRAp9LiVzj95zMNZQOe-41" value="" style="curved=1;startArrow=none;endArrow=block;exitX=0;exitY=0.79;entryX=0.5;entryY=-0.01;rounded=0;" edge="1" parent="1" source="zBRAp9LiVzj95zMNZQOe-24" target="zBRAp9LiVzj95zMNZQOe-29">
          <mxGeometry relative="1" as="geometry">
            <Array as="points">
              <mxPoint x="186" y="326" />
            </Array>
          </mxGeometry>
        </mxCell>
        <mxCell id="zBRAp9LiVzj95zMNZQOe-42" value="" style="curved=1;startArrow=none;endArrow=block;exitX=0.4;exitY=0.99;entryX=0.5;entryY=0;rounded=0;" edge="1" parent="1">
          <mxGeometry relative="1" as="geometry">
            <Array as="points" />
            <mxPoint x="125.48979591836724" y="613" as="sourcePoint" />
            <mxPoint x="105" y="685" as="targetPoint" />
          </mxGeometry>
        </mxCell>
        <mxCell id="zBRAp9LiVzj95zMNZQOe-43" value="" style="curved=1;startArrow=none;endArrow=block;exitX=1;exitY=0.79;entryX=0.32;entryY=0;rounded=0;" edge="1" parent="1" source="zBRAp9LiVzj95zMNZQOe-25" target="zBRAp9LiVzj95zMNZQOe-31">
          <mxGeometry relative="1" as="geometry">
            <Array as="points">
              <mxPoint x="440" y="649" />
            </Array>
          </mxGeometry>
        </mxCell>
        <mxCell id="zBRAp9LiVzj95zMNZQOe-44" value="" style="curved=1;startArrow=none;endArrow=block;exitX=0.28;exitY=0.99;entryX=0.5;entryY=0;rounded=0;" edge="1" parent="1" source="zBRAp9LiVzj95zMNZQOe-26" target="zBRAp9LiVzj95zMNZQOe-32">
          <mxGeometry relative="1" as="geometry">
            <Array as="points">
              <mxPoint x="794" y="649" />
            </Array>
          </mxGeometry>
        </mxCell>
        <mxCell id="zBRAp9LiVzj95zMNZQOe-45" value="" style="curved=1;startArrow=none;endArrow=block;exitX=0.21;exitY=0.99;entryX=0.46;entryY=0;rounded=0;" edge="1" parent="1" source="zBRAp9LiVzj95zMNZQOe-27" target="zBRAp9LiVzj95zMNZQOe-31">
          <mxGeometry relative="1" as="geometry">
            <Array as="points">
              <mxPoint x="497" y="649" />
            </Array>
          </mxGeometry>
        </mxCell>
        <mxCell id="zBRAp9LiVzj95zMNZQOe-46" value="" style="curved=1;startArrow=none;endArrow=block;exitX=0.5;exitY=0.99;entryX=0.5;entryY=-0.01;rounded=0;" edge="1" parent="1" source="zBRAp9LiVzj95zMNZQOe-28" target="zBRAp9LiVzj95zMNZQOe-33">
          <mxGeometry relative="1" as="geometry">
            <Array as="points" />
          </mxGeometry>
        </mxCell>
        <mxCell id="zBRAp9LiVzj95zMNZQOe-47" value="" style="curved=1;startArrow=none;endArrow=block;exitX=0;exitY=0.79;entryX=1;entryY=0.26;rounded=0;" edge="1" parent="1" source="zBRAp9LiVzj95zMNZQOe-33" target="zBRAp9LiVzj95zMNZQOe-25">
          <mxGeometry relative="1" as="geometry">
            <Array as="points">
              <mxPoint x="458" y="534" />
            </Array>
          </mxGeometry>
        </mxCell>
        <mxCell id="zBRAp9LiVzj95zMNZQOe-49" value="" style="curved=1;startArrow=none;endArrow=block;exitX=0.89;exitY=0.99;entryX=0.5;entryY=0;rounded=0;" edge="1" parent="1" source="zBRAp9LiVzj95zMNZQOe-26" target="zBRAp9LiVzj95zMNZQOe-34">
          <mxGeometry relative="1" as="geometry">
            <Array as="points">
              <mxPoint x="1027" y="649" />
            </Array>
          </mxGeometry>
        </mxCell>
        <mxCell id="zBRAp9LiVzj95zMNZQOe-50" value="" style="curved=1;startArrow=none;endArrow=block;exitX=0;exitY=0.81;entryX=1;entryY=0.5;rounded=0;entryDx=0;entryDy=0;" edge="1" parent="1" source="zBRAp9LiVzj95zMNZQOe-26" target="zBRAp9LiVzj95zMNZQOe-31">
          <mxGeometry relative="1" as="geometry">
            <Array as="points">
              <mxPoint x="670" y="603" />
              <mxPoint x="610" y="630" />
            </Array>
          </mxGeometry>
        </mxCell>
        <mxCell id="zBRAp9LiVzj95zMNZQOe-51" value="" style="curved=1;startArrow=none;endArrow=block;exitX=0.73;exitY=0.99;entryX=0.92;entryY=0;rounded=0;" edge="1" parent="1" source="zBRAp9LiVzj95zMNZQOe-27" target="zBRAp9LiVzj95zMNZQOe-31">
          <mxGeometry relative="1" as="geometry">
            <Array as="points" />
          </mxGeometry>
        </mxCell>
      </root>
    </mxGraphModel>
  </diagram>
</mxfile>
